{
	"patcher" : 	{
		"fileversion" : 1,
		"appversion" : 		{
			"major" : 8,
			"minor" : 5,
			"revision" : 3,
			"architecture" : "x64",
			"modernui" : 1
		}
,
		"classnamespace" : "box",
		"rect" : [ 34.0, 91.0, 1332.0, 955.0 ],
		"bglocked" : 0,
		"openinpresentation" : 0,
		"default_fontsize" : 12.0,
		"default_fontface" : 0,
		"default_fontname" : "Arial",
		"gridonopen" : 1,
		"gridsize" : [ 15.0, 15.0 ],
		"gridsnaponopen" : 1,
		"objectsnaponopen" : 1,
		"statusbarvisible" : 2,
		"toolbarvisible" : 1,
		"lefttoolbarpinned" : 0,
		"toptoolbarpinned" : 0,
		"righttoolbarpinned" : 0,
		"bottomtoolbarpinned" : 0,
		"toolbars_unpinned_last_save" : 0,
		"tallnewobj" : 0,
		"boxanimatetime" : 200,
		"enablehscroll" : 1,
		"enablevscroll" : 1,
		"devicewidth" : 0.0,
		"description" : "",
		"digest" : "",
		"tags" : "",
		"style" : "",
		"subpatcher_template" : "",
		"assistshowspatchername" : 0,
		"boxes" : [ 			{
				"box" : 				{
					"id" : "obj-27",
					"linecount" : 16,
					"maxclass" : "message",
					"numinlets" : 2,
					"numoutlets" : 1,
					"outlettype" : [ "" ],
					"patching_rect" : [ 406.0, 408.5, 902.0, 223.0 ],
					"text" : "0.30712 0.036796 0.076268 0.028816 -0.024258 0.032334 0.008167 -0.003651 0.003566 -0.010087 -0.000274 0.00468 -0.001246 -0.003419 -0.00521 -0.003216 -0.002263 -0.001647 -0.001546 -0.003886 -0.001529 -0.00271 -0.000977 -0.001641 -0.001048 -0.000306 -0.001426 -0.001012 -0.000214 -0.000308 -0.000778 -0.00058 -0.0018 -0.000931 -0.000945 -0.001064 -0.001669 -0.001248 -0.00181 -0.001557 -0.000943 -0.001352 -0.001232 -0.001277 -0.001106 -0.00134 -0.000701 -0.000747 -0.000865 -0.000993 -0.001095 -0.001039 -0.001047 -0.00099 -0.001187 -0.001142 -0.001373 -0.001229 -0.001134 -0.00107 -0.00111 -0.001124 -0.00107 -0.001102 -0.000913 -0.001102 -0.00107 -0.001124 -0.00111 -0.00107 -0.001134 -0.001229 -0.001373 -0.001142 -0.001187 -0.00099 -0.001047 -0.001039 -0.001095 -0.000993 -0.000865 -0.000747 -0.000701 -0.00134 -0.001106 -0.001277 -0.001232 -0.001352 -0.000943 -0.001557 -0.00181 -0.001248 -0.001669 -0.001064 -0.000945 -0.000931 -0.0018 -0.00058 -0.000778 -0.000308 -0.000214 -0.001012 -0.001426 -0.000306 -0.001048 -0.001641 -0.000977 -0.00271 -0.001529 -0.003886 -0.001546 -0.001647 -0.002263 -0.003216 -0.00521 -0.003419 -0.001246 0.00468 -0.000274 -0.010087 0.003566 -0.003651 0.008167 0.032334 -0.024258 0.028816 0.076268 0.036796 0.0525 0.032763 -0.008563 -0.016694 -0.03543 0.015651 0.013892 0.016395 -0.009937 -0.002797 0.005535 0.002922 0.008667 0.004818 -0.001294 0.00238 0.003088 0.000621 0.00232 0.000872 -0.000671 0.000197 -0.000083 -0.000414 0.000057 0.001172 -0.000867 0.000739 0.000404 0.000544 0.000988 0.000579 0.001373 0.000662 0.001421 0.00067 0.001136 0.00096 0.001159 0.000707 0.000604 0.000492 0.000238 0.000349 0.000286 0.000281 0.000105 0.000399 0.000316 0.000504 0.000495 0.000733 0.000438 0.00049 0.00059 0.000443 0.000593 0.00044 0.0004 0.000268 0.000231 0.000211 0.000339 0.000288 0.000167 0.000286 0.000186 0.000296 0.000369 0.000363 0.00025 0.000386 0.000217 0.000169 0.000234 0.000065 0.000221 0.000167 0.000103 0.000007 0.000226 -0.000025 0.000281 0.000268 0.000082 0.000369 0.000181 -0.000068 0.000232 0.0006 -0.000222 0.000062 -0.00013 -0.000531 -0.000518 -0.000062 -0.000632 -0.000529 -0.000019 -0.001238 -0.000449 0.000018 0.000673 0.000115 0.000197 -0.001553 -0.000079 0.001559 0.001226 -0.000126 -0.000991 -0.00004 -0.000896 0.000108 -0.001408 0.002817 -0.006504 0.002691 -0.007983 -0.013742 0.003493 -0.010338 0.006815 -0.007066 0.004717 0.028526 0.095962 0.071889"
				}

			}
, 			{
				"box" : 				{
					"id" : "obj-25",
					"maxclass" : "newobj",
					"numinlets" : 1,
					"numoutlets" : 2,
					"outlettype" : [ "", "" ],
					"patching_rect" : [ 261.5, 509.0, 100.0, 22.0 ],
					"text" : "jit.spill"
				}

			}
, 			{
				"box" : 				{
					"annotation" : "## Change a video's brightness/contrast/saturation ##",
					"bgmode" : 1,
					"border" : 0,
					"clickthrough" : 0,
					"enablehscroll" : 0,
					"enablevscroll" : 0,
					"id" : "obj-24",
					"lockeddragscroll" : 0,
					"lockedsize" : 0,
					"maxclass" : "bpatcher",
					"name" : "vz.brcosr.maxpat",
					"numinlets" : 7,
					"numoutlets" : 1,
					"offset" : [ 0.0, 0.0 ],
					"outlettype" : [ "jit_gl_texture" ],
					"patching_rect" : [ 312.0, 115.0, 208.0, 130.0 ],
					"prototypename" : "pixl",
					"varname" : "brcosr[1]",
					"viewvisibility" : 1
				}

			}
, 			{
				"box" : 				{
					"attr" : "saturation",
					"fontface" : 0,
					"fontname" : "Arial",
					"fontsize" : 13.0,
					"id" : "obj-19",
					"lock" : 1,
					"maxclass" : "attrui",
					"numinlets" : 1,
					"numoutlets" : 1,
					"outlettype" : [ "" ],
					"parameter_enable" : 0,
					"patching_rect" : [ 498.0, 367.0, 111.0, 23.0 ],
					"text_width" : 71.0
				}

			}
, 			{
				"box" : 				{
					"attr" : "contrast",
					"fontface" : 0,
					"fontname" : "Arial",
					"fontsize" : 13.0,
					"id" : "obj-20",
					"lock" : 1,
					"maxclass" : "attrui",
					"numinlets" : 1,
					"numoutlets" : 1,
					"outlettype" : [ "" ],
					"parameter_enable" : 0,
					"patching_rect" : [ 373.0, 367.0, 114.0, 23.0 ],
					"text_width" : 62.0
				}

			}
, 			{
				"box" : 				{
					"attr" : "brightness",
					"fontface" : 0,
					"fontname" : "Arial",
					"fontsize" : 13.0,
					"id" : "obj-22",
					"lock" : 1,
					"maxclass" : "attrui",
					"numinlets" : 1,
					"numoutlets" : 1,
					"outlettype" : [ "" ],
					"parameter_enable" : 0,
					"patching_rect" : [ 227.0, 367.0, 131.0, 23.0 ],
					"text_width" : 78.0
				}

			}
, 			{
				"box" : 				{
					"id" : "obj-18",
					"maxclass" : "newobj",
					"numinlets" : 1,
					"numoutlets" : 2,
					"outlettype" : [ "jit_matrix", "" ],
					"patching_rect" : [ 289.0, 447.0, 100.0, 22.0 ],
					"text" : "jit.brcosa"
				}

			}
, 			{
				"box" : 				{
					"id" : "obj-16",
					"maxclass" : "newobj",
					"numinlets" : 3,
					"numoutlets" : 1,
					"outlettype" : [ "" ],
					"patching_rect" : [ 14.0, 781.0, 514.0, 22.0 ],
					"text" : "pack 1. 2. 3."
				}

			}
, 			{
				"box" : 				{
					"id" : "obj-14",
					"maxclass" : "multislider",
					"numinlets" : 1,
					"numoutlets" : 2,
					"outlettype" : [ "", "" ],
					"parameter_enable" : 0,
					"patching_rect" : [ 14.0, 818.0, 220.0, 105.0 ],
					"setminmax" : [ 0.0, 2.0 ],
					"size" : 3
				}

			}
, 			{
				"box" : 				{
					"color" : [ 0.501960784313725, 0.031372549019608, 0.031372549019608, 1.0 ],
					"id" : "obj-11",
					"maxclass" : "newobj",
					"numinlets" : 3,
					"numoutlets" : 1,
					"outlettype" : [ "" ],
					"patching_rect" : [ 537.0, 688.0, 197.0, 22.0 ],
					"text" : "fft_mean_bands @dim 20 @pos 42"
				}

			}
, 			{
				"box" : 				{
					"format" : 6,
					"id" : "obj-13",
					"maxclass" : "flonum",
					"numinlets" : 1,
					"numoutlets" : 2,
					"outlettype" : [ "", "bang" ],
					"parameter_enable" : 0,
					"patching_rect" : [ 537.0, 742.0, 50.0, 22.0 ]
				}

			}
, 			{
				"box" : 				{
					"color" : [ 0.501960784313725, 0.031372549019608, 0.031372549019608, 1.0 ],
					"id" : "obj-9",
					"maxclass" : "newobj",
					"numinlets" : 3,
					"numoutlets" : 1,
					"outlettype" : [ "" ],
					"patching_rect" : [ 273.0, 688.0, 197.0, 22.0 ],
					"text" : "fft_mean_bands @dim 20 @pos 21"
				}

			}
, 			{
				"box" : 				{
					"format" : 6,
					"id" : "obj-10",
					"maxclass" : "flonum",
					"numinlets" : 1,
					"numoutlets" : 2,
					"outlettype" : [ "", "bang" ],
					"parameter_enable" : 0,
					"patching_rect" : [ 273.0, 742.0, 50.0, 22.0 ]
				}

			}
, 			{
				"box" : 				{
					"bubble" : 1,
					"id" : "obj-15",
					"maxclass" : "comment",
					"numinlets" : 1,
					"numoutlets" : 0,
					"patching_rect" : [ 65.0, 741.0, 192.0, 24.0 ],
					"text" : "Mean value in the chosen band"
				}

			}
, 			{
				"box" : 				{
					"bubble" : 1,
					"id" : "obj-12",
					"linecount" : 2,
					"maxclass" : "comment",
					"numinlets" : 1,
					"numoutlets" : 0,
					"patching_rect" : [ 565.0, 611.5, 334.0, 37.0 ],
					"text" : "takes two arguments setting size and position of the band on x and y axis (0 to128). Default are @dim43 @pos 86"
				}

			}
, 			{
				"box" : 				{
					"bubble" : 1,
					"id" : "obj-8",
					"maxclass" : "comment",
					"numinlets" : 1,
					"numoutlets" : 0,
					"patching_rect" : [ 125.0, 590.5, 213.0, 24.0 ],
					"text" : "2 planes fft float32 128 pix required"
				}

			}
, 			{
				"box" : 				{
					"color" : [ 0.501960784313725, 0.031372549019608, 0.031372549019608, 1.0 ],
					"id" : "obj-17",
					"maxclass" : "newobj",
					"numinlets" : 3,
					"numoutlets" : 1,
					"outlettype" : [ "" ],
					"patching_rect" : [ 9.0, 688.0, 197.0, 22.0 ],
					"text" : "fft_mean_bands @dim 20 @pos 2"
				}

			}
, 			{
				"box" : 				{
					"id" : "obj-64",
					"maxclass" : "number",
					"numinlets" : 1,
					"numoutlets" : 2,
					"outlettype" : [ "", "bang" ],
					"parameter_enable" : 0,
					"patching_rect" : [ 187.0, 647.5, 50.0, 22.0 ]
				}

			}
, 			{
				"box" : 				{
					"id" : "obj-62",
					"maxclass" : "number",
					"numinlets" : 1,
					"numoutlets" : 2,
					"outlettype" : [ "", "bang" ],
					"parameter_enable" : 0,
					"patching_rect" : [ 98.0, 647.5, 50.0, 22.0 ]
				}

			}
, 			{
				"box" : 				{
					"format" : 6,
					"id" : "obj-44",
					"maxclass" : "flonum",
					"numinlets" : 1,
					"numoutlets" : 2,
					"outlettype" : [ "", "bang" ],
					"parameter_enable" : 0,
					"patching_rect" : [ 9.0, 742.0, 50.0, 22.0 ]
				}

			}
, 			{
				"box" : 				{
					"annotation" : "## A Basis Function-based video generator ##",
					"bgmode" : 1,
					"border" : 0,
					"clickthrough" : 0,
					"enablehscroll" : 0,
					"enablevscroll" : 0,
					"id" : "obj-80",
					"lockeddragscroll" : 0,
					"lockedsize" : 0,
					"maxclass" : "bpatcher",
					"name" : "vz.bfgener8r.maxpat",
					"numinlets" : 12,
					"numoutlets" : 1,
					"offset" : [ 0.0, 0.0 ],
					"outlettype" : [ "jit_gl_texture" ],
					"patching_rect" : [ 9.0, 11.0, 272.0, 234.0 ],
					"prototypename" : "pixl",
					"varname" : "bfgener8r",
					"viewvisibility" : 1
				}

			}
, 			{
				"box" : 				{
					"id" : "obj-7",
					"linecount" : 2,
					"maxclass" : "newobj",
					"numinlets" : 1,
					"numoutlets" : 2,
					"outlettype" : [ "jit_matrix", "" ],
					"patching_rect" : [ 9.0, 585.0, 114.0, 35.0 ],
					"text" : "jit.fft 2 float32 128 128"
				}

			}
, 			{
				"box" : 				{
					"id" : "obj-6",
					"maxclass" : "newobj",
					"numinlets" : 2,
					"numoutlets" : 2,
					"outlettype" : [ "jit_matrix", "" ],
					"patching_rect" : [ 9.0, 556.0, 60.0, 22.0 ],
					"text" : "jit.pack 2"
				}

			}
, 			{
				"box" : 				{
					"id" : "obj-4",
					"maxclass" : "newobj",
					"numinlets" : 1,
					"numoutlets" : 2,
					"outlettype" : [ "jit_matrix", "" ],
					"patching_rect" : [ 9.0, 523.0, 161.0, 22.0 ],
					"text" : "jit.matrix 1 float32 128 128"
				}

			}
, 			{
				"box" : 				{
					"id" : "obj-3",
					"maxclass" : "newobj",
					"numinlets" : 1,
					"numoutlets" : 2,
					"outlettype" : [ "jit_matrix", "" ],
					"patching_rect" : [ 9.0, 494.0, 76.0, 22.0 ],
					"text" : "jit.rgb2luma"
				}

			}
, 			{
				"box" : 				{
					"id" : "obj-1",
					"maxclass" : "newobj",
					"numinlets" : 1,
					"numoutlets" : 2,
					"outlettype" : [ "jit_matrix", "" ],
					"patching_rect" : [ 9.0, 462.0, 147.0, 22.0 ],
					"text" : "jit.matrix 4 char 128 128"
				}

			}
, 			{
				"box" : 				{
					"background" : 1,
					"id" : "obj-21",
					"maxclass" : "jit.pwindow",
					"numinlets" : 1,
					"numoutlets" : 2,
					"outlettype" : [ "jit_matrix", "" ],
					"patching_rect" : [ 9.0, 288.0, 210.0, 162.0 ],
					"planemap" : [ 1, 1, 1, 1 ],
					"sync" : 1
				}

			}
 ],
		"lines" : [ 			{
				"patchline" : 				{
					"destination" : [ "obj-3", 0 ],
					"source" : [ "obj-1", 0 ]
				}

			}
, 			{
				"patchline" : 				{
					"destination" : [ "obj-16", 1 ],
					"source" : [ "obj-10", 0 ]
				}

			}
, 			{
				"patchline" : 				{
					"destination" : [ "obj-13", 0 ],
					"source" : [ "obj-11", 0 ]
				}

			}
, 			{
				"patchline" : 				{
					"destination" : [ "obj-16", 2 ],
					"source" : [ "obj-13", 0 ]
				}

			}
, 			{
				"patchline" : 				{
					"destination" : [ "obj-14", 0 ],
					"source" : [ "obj-16", 0 ]
				}

			}
, 			{
				"patchline" : 				{
					"destination" : [ "obj-44", 0 ],
					"source" : [ "obj-17", 0 ]
				}

			}
, 			{
				"patchline" : 				{
					"destination" : [ "obj-18", 0 ],
					"source" : [ "obj-19", 0 ]
				}

			}
, 			{
				"patchline" : 				{
					"destination" : [ "obj-18", 0 ],
					"source" : [ "obj-20", 0 ]
				}

			}
, 			{
				"patchline" : 				{
					"destination" : [ "obj-1", 0 ],
					"source" : [ "obj-21", 0 ]
				}

			}
, 			{
				"patchline" : 				{
					"destination" : [ "obj-18", 0 ],
					"source" : [ "obj-22", 0 ]
				}

			}
, 			{
				"patchline" : 				{
					"destination" : [ "obj-21", 0 ],
					"source" : [ "obj-24", 0 ]
				}

			}
, 			{
				"patchline" : 				{
					"destination" : [ "obj-27", 1 ],
					"source" : [ "obj-25", 0 ]
				}

			}
, 			{
				"patchline" : 				{
					"destination" : [ "obj-4", 0 ],
					"source" : [ "obj-3", 0 ]
				}

			}
, 			{
				"patchline" : 				{
					"destination" : [ "obj-6", 0 ],
					"source" : [ "obj-4", 0 ]
				}

			}
, 			{
				"patchline" : 				{
					"destination" : [ "obj-16", 0 ],
					"source" : [ "obj-44", 0 ]
				}

			}
, 			{
				"patchline" : 				{
					"destination" : [ "obj-7", 0 ],
					"source" : [ "obj-6", 0 ]
				}

			}
, 			{
				"patchline" : 				{
					"destination" : [ "obj-17", 1 ],
					"source" : [ "obj-62", 0 ]
				}

			}
, 			{
				"patchline" : 				{
					"destination" : [ "obj-17", 2 ],
					"source" : [ "obj-64", 0 ]
				}

			}
, 			{
				"patchline" : 				{
					"destination" : [ "obj-11", 0 ],
					"order" : 0,
					"source" : [ "obj-7", 0 ]
				}

			}
, 			{
				"patchline" : 				{
					"destination" : [ "obj-17", 0 ],
					"order" : 2,
					"source" : [ "obj-7", 0 ]
				}

			}
, 			{
				"patchline" : 				{
					"destination" : [ "obj-9", 0 ],
					"order" : 1,
					"source" : [ "obj-7", 0 ]
				}

			}
, 			{
				"patchline" : 				{
					"destination" : [ "obj-24", 0 ],
					"source" : [ "obj-80", 0 ]
				}

			}
, 			{
				"patchline" : 				{
					"destination" : [ "obj-10", 0 ],
					"source" : [ "obj-9", 0 ]
				}

			}
 ],
		"parameters" : 		{
			"obj-24::obj-104" : [ "pictctrl[48]", "pictctrl[1]", 0 ],
			"obj-24::obj-119" : [ "Brightness[1]", "Brightness", 0 ],
			"obj-24::obj-120" : [ "Brightness range[1]", "Brightness range", 1 ],
			"obj-24::obj-121" : [ "Offset[6]", "Brightness", 0 ],
			"obj-24::obj-127" : [ "Contrast[1]", "Contrast", 0 ],
			"obj-24::obj-128" : [ "Contrast range[1]", "Contrast range", 1 ],
			"obj-24::obj-129" : [ "contrast[1]", "Contrast", 0 ],
			"obj-24::obj-140" : [ "Saturation[1]", "Saturation", 0 ],
			"obj-24::obj-141" : [ "Saturation range[1]", "Saturation range", 1 ],
			"obj-24::obj-142" : [ "saturation[2]", "Saturation", 0 ],
			"obj-24::obj-147" : [ "pictctrl[47]", "pictctrl[1]", 0 ],
			"obj-24::obj-148" : [ "pictctrl[13]", "pictctrl[1]", 0 ],
			"obj-24::obj-149" : [ "pictctrl[46]", "pictctrl[1]", 0 ],
			"obj-24::obj-150" : [ "pictctrl[12]", "pictctrl[1]", 0 ],
			"obj-24::obj-151" : [ "pictctrl[11]", "pictctrl[1]", 0 ],
			"obj-24::obj-56::obj-23" : [ "gswitch2[3]", "gswitch2", 0 ],
			"obj-24::obj-6" : [ "range[6]", "range", 0 ],
			"obj-80::obj-100" : [ "Speed", "Speed", 1 ],
			"obj-80::obj-104" : [ "pictctrl[148]", "pictctrl[1]", 0 ],
			"obj-80::obj-15" : [ "pictctrl[34]", "pictctrl[1]", 0 ],
			"obj-80::obj-17" : [ "pictctrl[31]", "pictctrl[1]", 0 ],
			"obj-80::obj-21" : [ "Colorize", "Colorize", 0 ],
			"obj-80::obj-23" : [ "pictctrl[33]", "pictctrl[1]", 0 ],
			"obj-80::obj-26" : [ "pictctrl[32]", "pictctrl[1]", 0 ],
			"obj-80::obj-278" : [ "textbutton[3]", "textbutton[1]", 0 ],
			"obj-80::obj-37" : [ "pictctrl[28]", "pictctrl[1]", 0 ],
			"obj-80::obj-46" : [ "pictctrl[27]", "pictctrl[1]", 0 ],
			"obj-80::obj-5" : [ "Function", "Function", 0 ],
			"obj-80::obj-55" : [ "Bcolorize", "Bcolorize", 0 ],
			"obj-80::obj-56" : [ "Gcolorize", "Gcolorize", 0 ],
			"obj-80::obj-57" : [ "Rcolorize", "Rcolorize", 0 ],
			"obj-80::obj-59" : [ "pictctrl[106]", "pictctrl[1]", 0 ],
			"obj-80::obj-61" : [ "Zoom hi", "Zoom", 1 ],
			"obj-80::obj-63" : [ "Zoom range[2]", "Zoom range", 1 ],
			"obj-80::obj-76" : [ "pictctrl[29]", "pictctrl[1]", 0 ],
			"obj-80::obj-78" : [ "Zoom lo", "Zoom", 1 ],
			"obj-80::obj-8" : [ "pictctrl[30]", "pictctrl[1]", 0 ],
			"obj-80::obj-85" : [ "pictctrl[4]", "pictctrl[1]", 0 ],
			"obj-80::obj-91::obj-10::obj-11" : [ "Jitter[2]", "Jitter", 0 ],
			"obj-80::obj-91::obj-10::obj-19" : [ "Amount", "Amount", 0 ],
			"obj-80::obj-91::obj-11::obj-11" : [ "Jitter[1]", "Jitter", 0 ],
			"obj-80::obj-91::obj-11::obj-18" : [ "Smoothing", "Smoothing", 0 ],
			"obj-80::obj-91::obj-12::obj-23" : [ "Gain[3]", "Gain", 0 ],
			"obj-80::obj-91::obj-12::obj-25" : [ "Offset[3]", "Offset", 0 ],
			"obj-80::obj-91::obj-12::obj-27" : [ "Lacunarity[3]", "Lacunarity", 0 ],
			"obj-80::obj-91::obj-12::obj-31" : [ "H value[3]", "H value", 0 ],
			"obj-80::obj-91::obj-13::obj-11" : [ "Jitter", "Jitter", 0 ],
			"obj-80::obj-91::obj-15::obj-11" : [ "H value[4]", "H value", 0 ],
			"obj-80::obj-91::obj-15::obj-16" : [ "Lacunarity[4]", "Lacunarity", 0 ],
			"obj-80::obj-91::obj-15::obj-18" : [ "Offset[4]", "Offset", 0 ],
			"obj-80::obj-91::obj-15::obj-19" : [ "Gain[4]", "Gain", 0 ],
			"obj-80::obj-91::obj-1::obj-24" : [ "Gain", "Gain", 0 ],
			"obj-80::obj-91::obj-1::obj-26" : [ "Offset", "Offset", 0 ],
			"obj-80::obj-91::obj-1::obj-28" : [ "Lacunarity", "Lacunarity", 0 ],
			"obj-80::obj-91::obj-1::obj-32" : [ "H value", "H value", 0 ],
			"obj-80::obj-91::obj-3::obj-11" : [ "Distortion", "Distortion", 0 ],
			"obj-80::obj-91::obj-4::obj-24" : [ "Gain[1]", "Gain", 0 ],
			"obj-80::obj-91::obj-4::obj-26" : [ "Offset[1]", "Offset", 0 ],
			"obj-80::obj-91::obj-4::obj-28" : [ "Lacunarity[1]", "Lacunarity", 0 ],
			"obj-80::obj-91::obj-4::obj-32" : [ "H value[1]", "H value", 0 ],
			"obj-80::obj-91::obj-5::obj-23" : [ "Gain[2]", "Gain", 0 ],
			"obj-80::obj-91::obj-5::obj-25" : [ "Offset[2]", "Offset", 0 ],
			"obj-80::obj-91::obj-5::obj-27" : [ "Lacunarity[2]", "Lacunarity", 0 ],
			"obj-80::obj-91::obj-5::obj-31" : [ "H value[2]", "H value", 0 ],
			"obj-80::obj-91::obj-6::obj-11" : [ "Jitter[4]", "Jitter", 0 ],
			"obj-80::obj-91::obj-6::obj-24" : [ "X crackle", "X crackle", 0 ],
			"obj-80::obj-91::obj-6::obj-28" : [ "Y crackle", "Y crackle", 0 ],
			"obj-80::obj-91::obj-6::obj-29" : [ "Z crackle", "Z crackle", 0 ],
			"obj-80::obj-91::obj-9::obj-11" : [ "Jitter[3]", "Jitter", 0 ],
			"obj-80::obj-91::obj-9::obj-16" : [ "Shading", "Shading", 0 ],
			"obj-80::obj-96" : [ "pictctrl[35]", "pictctrl[1]", 0 ],
			"parameterbanks" : 			{

			}
,
			"parameter_overrides" : 			{
				"obj-24::obj-104" : 				{
					"parameter_longname" : "pictctrl[48]"
				}
,
				"obj-24::obj-119" : 				{
					"parameter_longname" : "Brightness[1]"
				}
,
				"obj-24::obj-121" : 				{
					"parameter_longname" : "Offset[6]"
				}
,
				"obj-24::obj-127" : 				{
					"parameter_longname" : "Contrast[1]"
				}
,
				"obj-24::obj-129" : 				{
					"parameter_longname" : "contrast[1]"
				}
,
				"obj-24::obj-140" : 				{
					"parameter_longname" : "Saturation[1]"
				}
,
				"obj-24::obj-142" : 				{
					"parameter_longname" : "saturation[2]"
				}
,
				"obj-24::obj-147" : 				{
					"parameter_longname" : "pictctrl[47]"
				}
,
				"obj-24::obj-148" : 				{
					"parameter_longname" : "pictctrl[13]"
				}
,
				"obj-24::obj-149" : 				{
					"parameter_longname" : "pictctrl[46]"
				}
,
				"obj-24::obj-150" : 				{
					"parameter_longname" : "pictctrl[12]"
				}
,
				"obj-24::obj-151" : 				{
					"parameter_longname" : "pictctrl[11]"
				}
,
				"obj-80::obj-91::obj-10::obj-11" : 				{
					"parameter_longname" : "Jitter[2]"
				}
,
				"obj-80::obj-91::obj-11::obj-11" : 				{
					"parameter_longname" : "Jitter[1]"
				}
,
				"obj-80::obj-91::obj-12::obj-23" : 				{
					"parameter_longname" : "Gain[3]"
				}
,
				"obj-80::obj-91::obj-12::obj-25" : 				{
					"parameter_longname" : "Offset[3]"
				}
,
				"obj-80::obj-91::obj-12::obj-27" : 				{
					"parameter_longname" : "Lacunarity[3]"
				}
,
				"obj-80::obj-91::obj-12::obj-31" : 				{
					"parameter_longname" : "H value[3]"
				}
,
				"obj-80::obj-91::obj-15::obj-11" : 				{
					"parameter_longname" : "H value[4]"
				}
,
				"obj-80::obj-91::obj-15::obj-16" : 				{
					"parameter_longname" : "Lacunarity[4]"
				}
,
				"obj-80::obj-91::obj-15::obj-18" : 				{
					"parameter_longname" : "Offset[4]"
				}
,
				"obj-80::obj-91::obj-15::obj-19" : 				{
					"parameter_longname" : "Gain[4]"
				}
,
				"obj-80::obj-91::obj-4::obj-24" : 				{
					"parameter_longname" : "Gain[1]"
				}
,
				"obj-80::obj-91::obj-4::obj-26" : 				{
					"parameter_longname" : "Offset[1]"
				}
,
				"obj-80::obj-91::obj-4::obj-28" : 				{
					"parameter_longname" : "Lacunarity[1]"
				}
,
				"obj-80::obj-91::obj-4::obj-32" : 				{
					"parameter_longname" : "H value[1]"
				}
,
				"obj-80::obj-91::obj-5::obj-23" : 				{
					"parameter_longname" : "Gain[2]"
				}
,
				"obj-80::obj-91::obj-5::obj-25" : 				{
					"parameter_longname" : "Offset[2]"
				}
,
				"obj-80::obj-91::obj-5::obj-27" : 				{
					"parameter_longname" : "Lacunarity[2]"
				}
,
				"obj-80::obj-91::obj-5::obj-31" : 				{
					"parameter_longname" : "H value[2]"
				}
,
				"obj-80::obj-91::obj-6::obj-11" : 				{
					"parameter_longname" : "Jitter[4]"
				}
,
				"obj-80::obj-91::obj-9::obj-11" : 				{
					"parameter_longname" : "Jitter[3]"
				}

			}
,
			"inherited_shortname" : 1
		}
,
		"dependency_cache" : [ 			{
				"name" : "bfgenerator_UI.maxpat",
				"bootpath" : "C74:/packages/Vizzie/patchers/bfg",
				"type" : "JSON",
				"implicit" : 1
			}
, 			{
				"name" : "brcosa.genjit",
				"bootpath" : "~/Library/Application Support/Cycling '74/Max 8/Examples/jitter-examples/gen",
				"patcherrelativepath" : "../../../Library/Application Support/Cycling '74/Max 8/Examples/jitter-examples/gen",
				"type" : "gJIT",
				"implicit" : 1
			}
, 			{
				"name" : "data-handler-L.maxpat",
				"bootpath" : "C74:/packages/Vizzie/patchers/utils",
				"type" : "JSON",
				"implicit" : 1
			}
, 			{
				"name" : "data-handler.maxpat",
				"bootpath" : "C74:/packages/Vizzie/patchers/utils",
				"type" : "JSON",
				"implicit" : 1
			}
, 			{
				"name" : "distorted_controls.maxpat",
				"bootpath" : "C74:/packages/Vizzie/patchers/bfg",
				"type" : "JSON",
				"implicit" : 1
			}
, 			{
				"name" : "exact_menu.maxpat",
				"bootpath" : "C74:/packages/Vizzie/patchers/utils",
				"type" : "JSON",
				"implicit" : 1
			}
, 			{
				"name" : "fft_mean_bands.maxpat",
				"bootpath" : "~/src/vivo/patches",
				"patcherrelativepath" : ".",
				"type" : "JSON",
				"implicit" : 1
			}
, 			{
				"name" : "fractal_fbm_controls.maxpat",
				"bootpath" : "C74:/packages/Vizzie/patchers/bfg",
				"type" : "JSON",
				"implicit" : 1
			}
, 			{
				"name" : "fractal_hetero_controls.maxpat",
				"bootpath" : "C74:/packages/Vizzie/patchers/bfg",
				"type" : "JSON",
				"implicit" : 1
			}
, 			{
				"name" : "fractal_hybrid_controls.maxpat",
				"bootpath" : "C74:/packages/Vizzie/patchers/bfg",
				"type" : "JSON",
				"implicit" : 1
			}
, 			{
				"name" : "fractal_multi_controls.maxpat",
				"bootpath" : "C74:/packages/Vizzie/patchers/bfg",
				"type" : "JSON",
				"implicit" : 1
			}
, 			{
				"name" : "fractal_rigid_controls.maxpat",
				"bootpath" : "C74:/packages/Vizzie/patchers/bfg",
				"type" : "JSON",
				"implicit" : 1
			}
, 			{
				"name" : "jit.mo.time.mxo",
				"type" : "iLaX"
			}
, 			{
				"name" : "lo_hi_UI_control.maxpat",
				"bootpath" : "C74:/packages/Vizzie/patchers/utils",
				"type" : "JSON",
				"implicit" : 1
			}
, 			{
				"name" : "noise_voronoi_controls.maxpat",
				"bootpath" : "C74:/packages/Vizzie/patchers/bfg",
				"type" : "JSON",
				"implicit" : 1
			}
, 			{
				"name" : "noise_voronoi_crackle_controls.maxpat",
				"bootpath" : "C74:/packages/Vizzie/patchers/bfg",
				"type" : "JSON",
				"implicit" : 1
			}
, 			{
				"name" : "noise_voronoi_id_controls.maxpat",
				"bootpath" : "C74:/packages/Vizzie/patchers/bfg",
				"type" : "JSON",
				"implicit" : 1
			}
, 			{
				"name" : "noise_voronoi_smooth_controls.maxpat",
				"bootpath" : "C74:/packages/Vizzie/patchers/bfg",
				"type" : "JSON",
				"implicit" : 1
			}
, 			{
				"name" : "noise_voronoise_controls.maxpat",
				"bootpath" : "C74:/packages/Vizzie/patchers/bfg",
				"type" : "JSON",
				"implicit" : 1
			}
, 			{
				"name" : "video-handler.maxpat",
				"bootpath" : "C74:/packages/Vizzie/patchers/utils",
				"type" : "JSON",
				"implicit" : 1
			}
, 			{
				"name" : "vizzie-datatexconvert.js",
				"bootpath" : "C74:/packages/Vizzie/code",
				"type" : "TEXT",
				"implicit" : 1
			}
, 			{
				"name" : "vizzie-global.js",
				"bootpath" : "C74:/packages/Vizzie/code",
				"type" : "TEXT",
				"implicit" : 1
			}
, 			{
				"name" : "vz.bfgener8r.maxpat",
				"bootpath" : "C74:/packages/Vizzie/patchers",
				"type" : "JSON",
				"implicit" : 1
			}
, 			{
				"name" : "vz.brcosr.maxpat",
				"bootpath" : "C74:/packages/Vizzie/patchers",
				"type" : "JSON",
				"implicit" : 1
			}
, 			{
				"name" : "vzgl-blackframe.maxpat",
				"bootpath" : "C74:/packages/Vizzie/patchers/utils",
				"type" : "JSON",
				"implicit" : 1
			}
, 			{
				"name" : "vzgl-object.maxpat",
				"bootpath" : "C74:/packages/Vizzie/patchers/utils",
				"type" : "JSON",
				"implicit" : 1
			}
, 			{
				"name" : "vzgl-outputdim.maxpat",
				"bootpath" : "C74:/packages/Vizzie/patchers/utils",
				"type" : "JSON",
				"implicit" : 1
			}
 ],
		"autosave" : 0
	}

}
